<?xml version="1.0" encoding="utf-8"?>
<!-- Generator: Adobe Illustrator 18.0.0, SVG Export Plug-In . SVG Version: 6.00 Build 0)  -->
<!DOCTYPE svg PUBLIC "-//W3C//DTD SVG 1.1//EN" "http://www.w3.org/Graphics/SVG/1.1/DTD/svg11.dtd">
<svg version="1.1" id="Layer_1" xmlns="http://www.w3.org/2000/svg" xmlns:xlink="http://www.w3.org/1999/xlink" x="0px" y="0px"
	 viewBox="66.3 0 118.2 27.7" enable-background="new 66.3 0 118.2 27.7" xml:space="preserve">
<g>
	<path fill="#FFFFFF" d="M112.6,5V0.4h12.4v17.3c0,2.8-0.7,5-2.2,6.4c-1.5,1.4-3.4,2.1-5.7,2.1c-2.9,0-5.4-1.1-7.5-3.3l2.8-3.8
		c1.4,1.5,2.9,2.3,4.5,2.3c0.8,0,1.4-0.3,1.9-0.9c0.5-0.6,0.8-1.4,0.8-2.6V5H112.6z"/>
	<path fill="#FFFFFF" d="M146.5,16.8c0,2.7-0.9,4.9-2.8,6.7c-1.8,1.8-4.2,2.7-6.9,2.7c-2.8,0-5.1-0.9-6.9-2.7s-2.8-4.1-2.8-6.7
		c0-2.7,0.9-4.9,2.8-6.7s4.2-2.7,6.9-2.7c2.8,0,5.1,0.9,6.9,2.7C145.6,11.9,146.5,14.1,146.5,16.8z M132.3,16.8
		c0,1.5,0.4,2.7,1.3,3.7c0.9,0.9,1.9,1.4,3.3,1.4c1.3,0,2.4-0.5,3.3-1.4c0.9-0.9,1.3-2.2,1.3-3.7c0-1.5-0.4-2.7-1.3-3.7
		c-0.9-1-1.9-1.4-3.3-1.4c-1.3,0-2.4,0.5-3.3,1.4C132.7,14.1,132.3,15.3,132.3,16.8z"/>
	<path fill="#FFFFFF" d="M158.9,7.8c2.2,0,4.2,0.9,5.8,2.6c1.7,1.7,2.5,4,2.5,6.7c0,2.7-0.9,5-2.6,6.9c-1.7,1.8-3.6,2.8-5.8,2.8
		c-2.2,0-4-0.9-5.4-2.7v2.4h-5.1V0.3h5.1v9.9C154.8,8.6,156.6,7.8,158.9,7.8z M153.3,17.3c0,1.5,0.4,2.7,1.2,3.7
		c0.8,0.9,1.8,1.4,3,1.4c1.2,0,2.2-0.5,3.1-1.4s1.3-2.2,1.3-3.6c0-1.5-0.4-2.7-1.3-3.7c-0.9-1-1.9-1.5-3.1-1.5
		c-1.2,0-2.2,0.5-3.1,1.5C153.8,14.6,153.3,15.8,153.3,17.3z"/>
	<path fill="#FFFFFF" d="M182.8,20.3c0,1.8-0.7,3.3-2,4.4c-1.3,1.1-3,1.6-5.1,1.6c-1.4,0-2.8-0.2-4.3-0.7c-1.5-0.5-2.8-1.2-4-2.2
		l2.3-3.2c1.9,1.5,3.9,2.2,6.1,2.2c0.7,0,1.2-0.1,1.6-0.4s0.6-0.6,0.6-1s-0.3-0.8-0.8-1.2c-0.5-0.4-1.3-0.7-2.3-1
		c-1-0.3-1.8-0.6-2.3-0.8c-0.5-0.2-1.1-0.6-1.8-1c-1.4-0.9-2.1-2.1-2.1-3.8c0-1.7,0.7-3.1,2-4.1c1.4-1.1,3.1-1.6,5.3-1.6
		c2.2,0,4.3,0.7,6.5,2.2l-1.9,3.4c-1.6-1.1-3.2-1.6-4.8-1.6c-1.6,0-2.4,0.4-2.4,1.3c0,0.5,0.3,0.9,0.8,1.1s1.3,0.6,2.5,1
		c1.2,0.4,2,0.6,2.5,0.8c0.5,0.2,1.1,0.5,1.8,0.9C182.2,17.2,182.8,18.5,182.8,20.3z"/>
</g>
<g>
	<path fill="#F26B31" d="M76.8,6.4h7.4l-1.1,4.4c-0.2,0.6-0.5,1.1-1,1.5c-0.5,0.4-1,0.6-1.7,0.6H77c-0.8,0-1.5,0.2-2.1,0.7
		c-0.6,0.5-1,1.1-1.3,1.9c-0.2,0.6-0.2,1.1,0,1.7c0.1,0.5,0.3,1,0.6,1.4c0.3,0.4,0.7,0.7,1.2,1c0.5,0.2,1,0.4,1.6,0.4h2.1
		c0.4,0,0.7,0.2,1,0.5c0.3,0.3,0.3,0.7,0.2,1.1l-1.3,4.8h-2.3c-1.6,0-3-0.3-4.3-1c-1.3-0.7-2.4-1.6-3.3-2.7
		c-0.9-1.1-1.5-2.4-1.8-3.9C67,17.1,67,15.6,67.4,14l0.1-0.5c0.3-1,0.7-2,1.3-2.9C69.4,9.8,70.1,9,71,8.4s1.7-1.1,2.7-1.5
		C74.7,6.6,75.7,6.4,76.8,6.4z"/>
	<path fill="#F26B31" d="M80.2,26.1L86.6,2c0.2-0.6,0.5-1.1,1-1.5c0.5-0.4,1-0.6,1.7-0.6h6.8c1.6,0,3,0.3,4.3,1
		c1.3,0.7,2.4,1.6,3.3,2.7c0.9,1.1,1.5,2.4,1.8,3.9c0.3,1.4,0.3,2.9-0.1,4.5l-0.1,0.5c-0.3,1-0.7,2-1.3,2.9
		c-0.6,0.9-1.3,1.6-2.1,2.3c-0.8,0.6-1.7,1.1-2.7,1.5c-1,0.3-2,0.5-3.1,0.5h-6.2l1.2-4.4c0.2-0.6,0.5-1.1,1-1.4
		c0.5-0.4,1.4-0.6,2-0.6h1.9c0.8,0,1.5-0.2,2.1-0.7c0.6-0.5,1-1.1,1.2-1.9c0.2-0.5,0.2-1.1,0-1.6c-0.1-0.5-0.3-1-0.6-1.4
		c-0.3-0.4-0.7-0.7-1.2-1c-0.5-0.3-1-0.4-1.6-0.4h-3.7l-4.8,17.7c-0.2,0.6-0.5,1.1-1,1.4c-0.5,0.4-1,0.6-1.6,0.6H80.2z"/>
</g>
</svg>
